<svg
        xmlns="http://www.w3.org/2000/svg"
        xmlns:xlink="http://www.w3.org/1999/xlink"
        width="24px" height="20px">
    <path fill-rule="evenodd"  fill="rgb(255, 255, 255)"
          d="M9.230,18.177 C9.230,17.169 8.408,16.360 7.384,16.360 C6.360,16.360 5.538,17.169 5.538,18.177 C5.538,19.186 6.360,19.995 7.384,19.995 C8.408,19.995 9.230,19.186 9.230,18.177 ZM22.153,18.177 C22.153,17.169 21.331,16.360 20.307,16.360 C19.283,16.360 18.461,17.169 18.461,18.177 C18.461,19.186 19.283,19.995 20.307,19.995 C21.331,19.995 22.153,19.186 22.153,18.177 ZM23.999,2.728 C23.999,2.231 23.581,1.820 23.076,1.820 L5.755,1.820 C5.610,1.138 5.596,0.002 4.615,0.002 L0.923,0.002 C0.418,0.002 0.000,0.414 0.000,0.911 C0.000,1.408 0.418,1.820 0.923,1.820 L3.865,1.820 L6.418,13.506 C6.216,13.917 5.538,15.011 5.538,15.451 C5.538,15.948 5.956,16.360 6.461,16.360 L21.230,16.360 C21.735,16.360 22.153,15.948 22.153,15.451 C22.153,14.954 21.735,14.542 21.230,14.542 L7.961,14.542 C8.105,14.258 8.307,13.960 8.307,13.634 C8.307,13.307 8.178,12.952 8.120,12.639 L23.177,10.907 C23.653,10.850 23.999,10.453 23.999,9.998 L23.999,2.728 Z"/>
</svg>